<svg height="512pt" viewBox="0 -10 512.001 512" width="512pt" xmlns="http://www.w3.org/2000/svg"><path d="m496.371094 287.890625-14.855469 14.464844 7.085937 19.367187c10.011719 27.359375-4.558593 57.582032-32.195312 66.792969l-19.578125 6.523437-2.027344 20.617188c-2.847656 28.960938-26.089843 49.308594-57.910156 46.214844-48.300781-4.691406-79.046875-42.707032-79.046875-42.707032h-85.273438s-30.109374 39.0625-77.460937 42.707032c-29.011719 2.234375-55.058594-17.253906-57.90625-46.21875l-2.027344-20.613282-19.578125-6.527343c-27.636718-9.210938-42.207031-39.429688-32.195312-66.789063l7.085937-19.367187-14.859375-14.464844c-20.839844-20.292969-20.839844-53.773437 0-74.066406l14.859375-14.464844-7.085937-19.367187c-10.011719-27.359376 4.554687-57.582032 32.195312-66.792969l19.574219-6.523438 2.03125-20.617187c2.847656-28.960938 29.035156-49.859375 57.90625-46.214844l20.542969 2.589844 10.730468-17.621094c15.152344-24.8828125 47.859376-32.332031 72.289063-16.46875l17.328125 11.253906 17.328125-11.25c24.429687-15.867187 57.136719-8.4140622 72.289063 16.464844l10.730468 17.625 20.542969-2.59375c28.875-3.644531 55.0625 17.257812 57.910156 46.21875l2.027344 20.617188 19.578125 6.523437c27.636719 9.210937 42.203125 39.433594 32.195312 66.792969l-7.089843 19.363281 14.859375 14.46875c20.839844 20.289063 20.839844 53.769531 0 74.0625zm0 0" fill="#682c54"/><path d="m496.371094 213.824219-14.859375-14.464844 7.089843-19.367187c10.007813-27.359376-4.558593-57.578126-32.195312-66.789063l-19.578125-6.527344-2.027344-20.613281c-2.304687-23.414062-19.859375-41.550781-41.753906-45.71875 20.476563 12.5625 30.085937 38.226562 21.46875 61.78125l-7.089844 19.367188 14.859375 14.464843c20.839844 20.292969 20.839844 53.773438 0 74.066407l-14.859375 14.464843 7.089844 19.367188c10.007813 27.359375-4.558594 57.582031-32.195313 66.792969l-18.398437 6.128906 1.847656 5.050781c10.011719 27.359375-4.558593 57.582031-32.195312 66.792969l-19.578125 6.523437-2.027344 20.617188c-.5 5.082031-1.640625 9.890625-3.332031 14.363281 12.949219 11.613281 36.894531 28.703125 68.257812 31.75 31.820313 3.089844 55.058594-17.257812 57.90625-46.21875l2.027344-20.617188 19.578125-6.523437c27.636719-9.210937 42.207031-39.433594 32.195312-66.792969l-7.085937-19.367187 14.855469-14.464844c20.839844-20.292969 20.839844-53.773437 0-74.066406zm0 0" fill="#542a48"/><path d="m158.167969 436.320312c-35.394531 0-64.191407-28.796874-64.191407-64.191406 0-35.394531 28.796876-64.1875 64.191407-64.1875s64.191406 28.792969 64.191406 64.1875c0 35.394532-28.796875 64.191406-64.191406 64.191406zm0-113.0625c-26.949219 0-48.875 21.921876-48.875 48.871094 0 26.949219 21.925781 48.875 48.875 48.875s48.871093-21.925781 48.871093-48.875c0-26.949218-21.921874-48.871094-48.871093-48.871094zm0 0" fill="#ee4a84"/><path d="m352.242188 436.320312c-35.394532 0-64.1875-28.796874-64.1875-64.191406 0-35.394531 28.792968-64.1875 64.1875-64.1875 35.394531 0 64.191406 28.792969 64.191406 64.1875 0 35.394532-28.796875 64.191406-64.191406 64.191406zm0-113.0625c-26.949219 0-48.871094 21.921876-48.871094 48.871094 0 26.949219 21.921875 48.875 48.871094 48.875 26.949218 0 48.875-21.925781 48.875-48.875 0-26.949218-21.925782-48.871094-48.875-48.871094zm0 0" fill="#ee4a84"/><path d="m365.46875 217.984375c-19.996094-40.832031-61.957031-68.949219-110.488281-68.949219s-90.492188 28.117188-110.488281 68.949219c-3.515626 7.179687-5.222657 15.105469-5.222657 23.097656v74.53125c0 31.21875 16.84375 58.488281 41.933594 73.257813-.265625 2.136718-.417969 4.304687-.417969 6.511718v43.484376c0 28.96875 23.484375 52.449218 52.453125 52.449218h43.484375c28.96875 0 52.449219-23.480468 52.449219-52.449218v-43.484376c0-2.207031-.148437-4.375-.414063-6.511718 25.085938-14.769532 41.933594-42.039063 41.933594-73.257813v-74.53125c0-7.992187-1.707031-15.917969-5.222656-23.097656zm0 0" fill="#f7c6ba"/><path d="m365.46875 217.984375c-19.996094-40.832031-61.957031-68.949219-110.488281-68.949219-7.996094 0-15.808594.777344-23.375 2.234375 38.378906 7.390625 70.410156 32.609375 87.109375 66.714844 3.515625 7.179687 5.222656 15.105469 5.222656 23.097656v74.527344c0 46.929687-38.042969 84.976563-84.972656 84.976563h46.753906c.648438 0 1.289062-.035157 1.9375-.050782v38.773438c0 28.722656-23.285156 52.007812-52.007812 52.007812h41.519531c28.722656 0 52.003906-23.28125 52.003906-52.007812v-44.375c0-2.0625-.128906-4.09375-.363281-6.09375 25.058594-14.777344 41.882812-42.03125 41.882812-73.226563v-74.53125c0-7.992187-1.707031-15.917969-5.222656-23.097656zm0 0" fill="#f4ada5"/><path d="m274.816406 310.402344c-8.269531 0-15.554687 4.207031-19.835937 10.597656-4.28125-6.390625-11.566407-10.597656-19.835938-10.597656-13.179687 0-23.863281 23.859375-23.863281 23.859375s7.082031 32.292969 43.699219 32.292969c36.617187 0 43.695312-32.292969 43.695312-32.292969s-10.683593-23.859375-23.859375-23.859375zm0 0" fill="#ff738b"/><path d="m274.816406 310.402344c-4.488281 0-8.675781 1.246094-12.261718 3.398437 8.800781 6.585938 15.019531 23.699219 15.019531 23.699219s-5.691407 22.621094-33.144531 28.046875c3.214843.632813 6.710937 1.007813 10.550781 1.007813 36.617187 0 43.699219-32.292969 43.699219-32.292969s-10.6875-23.859375-23.863282-23.859375zm0 0" fill="#ee4a84"/><path d="m274.816406 310.402344c-8.269531 0-15.554687 4.207031-19.835937 10.597656-4.28125-6.390625-11.566407-10.597656-19.835938-10.597656-13.179687 0-23.863281 23.859375-23.863281 23.859375l30.84375 4.734375c8.535156 1.082031 17.175781 1.082031 25.714844 0l30.835937-4.734375s-10.683593-23.859375-23.859375-23.859375zm0 0" fill="#ee4a84"/><path d="m285.050781 284.710938c-2.355469 0-4.679687-1.082032-6.183593-3.128907-4.488282-6.117187-13.867188-10.074219-23.886719-10.074219-10.023438 0-19.398438 3.953126-23.890625 10.074219-2.503906 3.410157-7.296875 4.144531-10.703125 1.644531-3.410157-2.503906-4.148438-7.296874-1.644531-10.707031 7.386718-10.070312 21.273437-16.328125 36.238281-16.328125 14.960937 0 28.847656 6.257813 36.238281 16.328125 2.503906 3.410157 1.765625 8.203125-1.644531 10.707031-1.363281 1-2.953125 1.484376-4.523438 1.484376zm0 0" fill="#ff6914"/><path d="m274.816406 310.402344c-4.488281 0-8.675781 1.246094-12.261718 3.398437 8.800781 6.585938 15.019531 23.699219 15.019531 23.699219l21.105469-3.238281c-.003907 0-10.6875-23.859375-23.863282-23.859375zm0 0" fill="#d93984"/><path d="m190.039062 187.148438 9.597657 19.449218c1.320312 2.675782 3.871093 4.527344 6.820312 4.957032l21.464844 3.117187c7.433594 1.082031 10.398437 10.210937 5.023437 15.453125l-15.535156 15.140625c-2.132812 2.078125-3.105468 5.078125-2.601562 8.015625l3.664062 21.378906c1.269532 7.402344-6.496094 13.042969-13.144531 9.550782l-19.199219-10.09375c-2.636718-1.386719-5.789062-1.386719-8.429687 0l-19.199219 10.09375c-6.644531 3.496093-14.414062-2.148438-13.144531-9.550782l3.667969-21.378906c.503906-2.9375-.46875-5.9375-2.605469-8.015625l-15.53125-15.140625c-5.378907-5.242188-2.410157-14.371094 5.019531-15.453125l21.464844-3.117187c2.953125-.429688 5.5-2.28125 6.820312-4.957032l9.601563-19.449218c3.320312-6.734376 12.921875-6.734376 16.246093 0zm0 0" fill="#005182"/><path d="m232.945312 230.125c5.375-5.242188 2.410157-14.371094-5.023437-15.453125l-19.804687-2.875c-.570313 1.253906-1.386719 2.445313-2.480469 3.507813l-19.703125 19.210937c-2.710938 2.640625-3.945313 6.445313-3.308594 10.171875l4.652344 27.125c.175781 1.023438.210937 2.019531.128906 2.976562l17.921875 9.421876c6.648437 3.496093 14.414063-2.148438 13.144531-9.546876l-3.667968-21.378906c-.503907-2.941406.472656-5.9375 2.605468-8.019531zm0 0" fill="#00476b"/><path d="m154.265625 297.035156c-4.300781 0-8.570313-1.347656-12.21875-3.996094-6.460937-4.695312-9.632813-12.496093-8.285156-20.367187l3.425781-19.976563-14.511719-14.148437c-5.71875-5.574219-7.738281-13.75-5.269531-21.34375 2.464844-7.59375 8.90625-13.023437 16.808594-14.171875l20.058594-2.914062 8.96875-18.175782c3.535156-7.160156 10.6875-11.609375 18.671874-11.609375 7.984376 0 15.140626 4.449219 18.671876 11.609375l8.972656 18.175782 20.058594 2.914062c7.898437 1.148438 14.339843 6.578125 16.804687 14.171875 2.46875 7.59375.449219 15.769531-5.265625 21.34375l-14.515625 14.148437 3.425781 19.976563c1.351563 7.867187-1.824218 15.671875-8.28125 20.363281-6.460937 4.691406-14.863281 5.304688-21.929687 1.585938l-17.941407-9.433594-17.941406 9.433594c-3.074218 1.617187-6.398437 2.414062-9.707031 2.414062zm27.648437-35.722656c3.328126 0 6.65625.796875 9.6875 2.394531l14.351563 7.542969-2.742187-15.980469c-1.15625-6.753906 1.082031-13.640625 5.988281-18.425781l11.609375-11.320312-16.042969-2.328126c-6.78125-.984374-12.644531-5.242187-15.675781-11.390624l-7.175782-14.539063-7.175781 14.539063c-3.03125 6.144531-8.890625 10.402343-15.675781 11.386718l-16.042969 2.332032 11.609375 11.316406c4.910156 4.785156 7.148438 11.675781 5.988282 18.429687l-2.742188 15.980469 14.351562-7.546875c3.03125-1.59375 6.359376-2.390625 9.6875-2.390625zm0 0" fill="#ff8514"/><path d="m246.421875 217.203125c-2.464844-7.59375-8.90625-13.023437-16.808594-14.171875l-20.058593-2.914062-8.96875-18.175782c-3.53125-7.160156-10.6875-11.605468-18.671876-11.605468-4.75 0-9.199218 1.582031-12.769531 4.363281 5.554688 1.582031 10.253907 5.429687 12.90625 10.804687l8.96875 18.175782 20.058594 2.917968c7.902344 1.148438 14.339844 6.578125 16.808594 14.167969 2.46875 7.59375.449219 15.773437-5.269531 21.34375l-14.511719 14.148437 3.425781 19.980469c1.308594 7.652344-1.664062 15.230469-7.769531 19.960938 6.109375 1.785156 12.71875.6875 18.019531-3.160157 6.460938-4.695312 9.632812-12.496093 8.285156-20.367187l-3.425781-19.976563 14.511719-14.148437c5.71875-5.570313 7.738281-13.75 5.269531-21.34375zm0 0" fill="#ff6914"/><path d="m336.167969 187.148438 9.601562 19.449218c1.320313 2.675782 3.871094 4.527344 6.820313 4.957032l21.464844 3.117187c7.429687 1.082031 10.398437 10.210937 5.019531 15.453125l-15.53125 15.140625c-2.136719 2.078125-3.109375 5.078125-2.605469 8.015625l3.667969 21.378906c1.269531 7.402344-6.5 13.042969-13.144531 9.550782l-19.199219-10.09375c-2.640625-1.386719-5.792969-1.386719-8.429688 0l-19.199219 10.09375c-6.648437 3.496093-14.414062-2.148438-13.144531-9.550782l3.667969-21.378906c.503906-2.9375-.472656-5.9375-2.605469-8.015625l-15.53125-15.140625c-5.378906-5.242188-2.410156-14.371094 5.019531-15.453125l21.464844-3.117187c2.949219-.429688 5.5-2.28125 6.820313-4.957032l9.597656-19.449218c3.324219-6.734376 12.925781-6.734376 16.246094 0zm0 0" fill="#005182"/><path d="m379.074219 230.125c5.378906-5.242188 2.410156-14.371094-5.019531-15.453125l-19.808594-2.875c-.566406 1.253906-1.386719 2.445313-2.476563 3.507813l-19.707031 19.210937c-2.707031 2.640625-3.945312 6.445313-3.304688 10.171875l4.652344 27.125c.175782 1.023438.207032 2.019531.125 2.976562l17.925782 9.421876c6.644531 3.496093 14.410156-2.148438 13.144531-9.546876l-3.667969-21.378906c-.503906-2.941406.46875-5.9375 2.605469-8.019531zm0 0" fill="#00476b"/><path d="m300.394531 297.035156c-4.296875 0-8.566406-1.347656-12.21875-3.996094-6.457031-4.695312-9.632812-12.496093-8.28125-20.367187l3.425781-19.976563-14.515624-14.148437c-5.714844-5.574219-7.734376-13.75-5.269532-21.34375 2.46875-7.59375 8.910156-13.023437 16.8125-14.171875l20.054688-2.914062 8.972656-18.175782c3.53125-7.160156 10.6875-11.609375 18.671875-11.609375s15.136719 4.449219 18.671875 11.609375l8.96875 18.175782 20.058594 2.914062c7.902344 1.148438 14.339844 6.578125 16.808594 14.171875s.449218 15.769531-5.269532 21.34375l-14.511718 14.148437 3.425781 19.976563c1.347656 7.867187-1.824219 15.671875-8.285157 20.363281-6.457031 4.691406-14.859374 5.304688-21.929687 1.585938l-17.941406-9.433594-17.9375 9.433594c-3.074219 1.617187-6.402344 2.414062-9.710938 2.414062zm27.648438-35.722656c3.328125 0 6.65625.796875 9.691406 2.394531l14.347656 7.542969-2.738281-15.980469c-1.160156-6.753906 1.078125-13.640625 5.988281-18.425781l11.609375-11.320312-16.042968-2.328126c-6.785157-.984374-12.644532-5.242187-15.679688-11.390624l-7.175781-14.539063-7.171875 14.539063c-3.035156 6.144531-8.894532 10.402343-15.679688 11.386718l-16.039062 2.332032 11.605468 11.316406c4.910157 4.785156 7.148438 11.675781 5.988282 18.429687l-2.738282 15.980469 14.347657-7.546875c3.035156-1.59375 6.359375-2.390625 9.6875-2.390625zm0 0" fill="#ff8514"/><path d="m392.554688 217.203125c-2.46875-7.59375-8.910157-13.023437-16.808594-14.171875l-20.058594-2.914062-8.972656-18.175782c-3.53125-7.160156-10.6875-11.605468-18.671875-11.605468-4.746094 0-9.195313 1.582031-12.769531 4.363281 5.558593 1.582031 10.253906 5.429687 12.90625 10.804687l8.972656 18.175782 20.058594 2.917968c7.898437 1.148438 14.339843 6.578125 16.808593 14.167969 2.464844 7.59375.445313 15.773437-5.269531 21.34375l-14.515625 14.148437 3.425781 19.980469c1.3125 7.652344-1.660156 15.230469-7.765625 19.960938 6.105469 1.785156 12.714844.6875 18.019531-3.160157 6.457032-4.695312 9.632813-12.496093 8.28125-20.367187l-3.425781-19.976563 14.515625-14.148437c5.714844-5.570313 7.734375-13.75 5.269532-21.34375zm0 0" fill="#ff6914"/></svg>